<?xml version="1.0" encoding="UTF-8"?>
<svg width="8px" height="5px" viewBox="0 0 8 5" version="1.1" xmlns="http://www.w3.org/2000/svg" xmlns:xlink="http://www.w3.org/1999/xlink">
    <!-- Generator: Sketch 52.2 (67145) - http://www.bohemiancoding.com/sketch -->
    <title>›</title>
    <desc>Created with Sketch.</desc>
    <g id="BRUNER-DYNAMICS-Plans" stroke="none" stroke-width="1" fill="none" fill-rule="evenodd">
        <g id="Bruner-Dynamics-Mobile" transform="translate(-267.000000, -578.000000)" fill="#202E39">
            <g id="MOBILE-PACKAGE-CARDS" transform="translate(0.000000, 423.000000)">
                <g id="CONTENT" transform="translate(15.000000, 28.000000)">
                    <g id="PAMANTHA" transform="translate(0.000000, 91.000000)">
                        <g id="See-More" transform="translate(201.000000, 29.000000)">
                            <path d="M54.4940748,13.2840748 L52.8560748,13.2840748 C52.6580748,13.2840748 52.5680748,13.1580748 52.6940748,12.9600748 L55.1600748,9.32407475 L52.6940748,5.68807475 C52.5680748,5.49007475 52.6580748,5.36407475 52.8560748,5.36407475 L54.4940748,5.36407475 C54.6200748,5.36407475 54.7280748,5.40007475 54.8000748,5.52607475 L57.2300748,9.14407475 C57.3020748,9.27007475 57.3020748,9.37807475 57.2300748,9.50407475 L54.8000748,13.1220748 C54.7280748,13.2480748 54.6200748,13.2840748 54.4940748,13.2840748 Z" id="›" transform="translate(54.960000, 9.324075) rotate(90.000000) translate(-54.960000, -9.324075) "></path>
                        </g>
                    </g>
                </g>
            </g>
        </g>
    </g>
</svg>